<svg width="60" height="60" viewBox="0 0 60 60" fill="none" xmlns="http://www.w3.org/2000/svg">
<rect width="60" height="60" fill="#E1D7D5"/>
<path d="M46.9231 43.8462H13.0769V45.3847H46.9231V43.8462Z" fill="#552E05"/>
<path d="M46.9231 43.8462H13.0769V45.3847H46.9231V43.8462Z" fill="#552E05"/>
<path d="M45.3846 45.3846H13.0769V46.9231H45.3846V45.3846Z" fill="#552E05"/>
<path d="M45.3846 46.9231H16.1538V48.4616H45.3846V46.9231Z" fill="#552E05"/>
<path d="M31.5385 42.3077H10V43.8462H31.5385V42.3077Z" fill="#552E05"/>
<path d="M20.7692 34.6154H14.6154V36.1538H20.7692V34.6154Z" fill="#552E05"/>
<path d="M34.6154 40.7693H10V42.3077H34.6154V40.7693Z" fill="#6E3206"/>
<path d="M37.6923 39.2307H10V40.7692H37.6923V39.2307Z" fill="#6E3206"/>
<path d="M40.7692 37.6923H13.0769V39.2307H40.7692V37.6923Z" fill="#6E3206"/>
<path d="M48.4615 36.1538H14.6154V37.6923H48.4615V36.1538Z" fill="#6E3206"/>
<path d="M31.5385 30H14.6154V31.5385H31.5385V30Z" fill="#6E3206"/>
<path d="M34.6154 28.4615H14.6154V30H34.6154V28.4615Z" fill="#6E3206"/>
<path d="M43.8462 26.9231H23.8462V28.4616H43.8462V26.9231Z" fill="#6E3206"/>
<path d="M42.3077 25.3846H26.9231V26.9231H42.3077V25.3846Z" fill="#6E3206"/>
<path d="M40.7692 23.8462H30V25.3847H40.7692V23.8462Z" fill="#6E3206"/>
<path d="M36.1538 19.2307H25.3846V20.7692H36.1538V19.2307Z" fill="#6E3206"/>
<path d="M33.0769 17.6923H25.3846V19.2307H33.0769V17.6923Z" fill="#6E3206"/>
<path d="M31.5385 16.1538H26.9231V17.6923H31.5385V16.1538Z" fill="#6E3206"/>
<path d="M31.5385 14.6154H28.4615V16.1538H31.5385V14.6154Z" fill="#6E3206"/>
<path d="M33.0769 13.0769H30V14.6154H33.0769V13.0769Z" fill="#6E3206"/>
<path d="M34.6154 11.5385H31.5385V13.0769H34.6154V11.5385Z" fill="#6E3206"/>
<path d="M37.6923 22.3077H31.5385V23.8462H37.6923V22.3077Z" fill="#6E3206"/>
<path d="M48.4615 34.6154H20.7692V36.1538H48.4615V34.6154Z" fill="#6E3206"/>
<path d="M48.4615 33.0769H23.8462V34.6154H48.4615V33.0769Z" fill="#6E3206"/>
<path d="M45.3846 31.5385H23.8462V33.0769H45.3846V31.5385Z" fill="#6E3206"/>
<path d="M26.9231 31.5385H13.0769V33.0769H26.9231V31.5385Z" fill="#6E3206"/>
<path d="M23.8462 30H13.0769V31.5385H23.8462V30Z" fill="#6E3206"/>
<path d="M50 42.3077H31.5385V43.8462H50V42.3077Z" fill="#6D3C21"/>
<path d="M40.7692 42.3077H31.5385V43.8462H40.7692V42.3077Z" fill="#9F4B27"/>
<path d="M34.6154 43.8462H25.3846V45.3847H34.6154V43.8462Z" fill="#9F4B27"/>
<path d="M28.4615 45.3846H20.7692V46.9231H28.4615V45.3846Z" fill="#9F4B27"/>
<path d="M22.3077 46.9231H16.1538V48.4616H22.3077V46.9231Z" fill="#9F4B27"/>
<path d="M45.3846 40.7693H34.6154V42.3077H45.3846V40.7693Z" fill="#9F4B27"/>
<path d="M36.1538 33.0769H25.3846V34.6154H36.1538V33.0769Z" fill="#9F4B27"/>
<path d="M34.6154 11.5385H31.5385V13.0769H34.6154V11.5385Z" fill="#9F4B27"/>
<path d="M30 17.6923H25.3846V19.2307H30V17.6923Z" fill="#9F4B27"/>
<path d="M30 23.8462H23.8462V25.3847H30V23.8462Z" fill="#9F4B27"/>
<path d="M31.5385 34.6154H20.7692V36.1538H31.5385V34.6154Z" fill="#9F4B27"/>
<path d="M26.9231 25.3846H20.7692V26.9231H26.9231V25.3846Z" fill="#9F4B27"/>
<path d="M48.4615 39.2307H37.6923V40.7692H48.4615V39.2307Z" fill="#9F4B27"/>
<path d="M46.9231 37.6923H40.7692V39.2307H46.9231V37.6923Z" fill="#9F4B27"/>
<path d="M50 42.3077H40.7692V43.8462H50V42.3077Z" fill="#552E05"/>
<path d="M48.4615 36.1538H40.7692V37.6923H48.4615V36.1538Z" fill="#552E05"/>
<path d="M50 40.7693H45.3846V42.3077H50V40.7693Z" fill="#552E05"/>
<path d="M50 39.2307H46.9231V40.7692H50V39.2307Z" fill="#552E05"/>
<path d="M48.4615 33.0769H45.3846V34.6154H48.4615V33.0769Z" fill="#552E05"/>
<path d="M48.4615 34.6154H43.8462V36.1538H48.4615V34.6154Z" fill="#552E05"/>
<path d="M25.3846 33.0769H13.0769V34.6154H25.3846V33.0769Z" fill="#552E05"/>
<path d="M20.7692 25.3846H19.2308V26.9231H20.7692V25.3846Z" fill="#552E05"/>
<path d="M34.6154 31.5385H22.3077V33.0769H34.6154V31.5385Z" fill="#552E05"/>
<path d="M43.8462 30H31.5385V31.5385H43.8462V30Z" fill="#552E05"/>
<path d="M25.3846 23.8462H19.2308V25.3847H25.3846V23.8462Z" fill="#552E05"/>
<path d="M31.5385 22.3077H22.3077V23.8462H31.5385V22.3077Z" fill="#552E05"/>
<path d="M37.6923 20.7693H26.9231V22.3077H37.6923V20.7693Z" fill="#552E05"/>
<path d="M30 16.1538H26.9231V17.6923H30V16.1538Z" fill="#552E05"/>
<path d="M45.3846 28.4615H34.6154V30H45.3846V28.4615Z" fill="#552E05"/>
<path d="M45.3846 26.9231H34.6154V28.4616H45.3846V26.9231Z" fill="#552E05"/>
<path d="M25.3846 36.1538H14.6154V37.6923H25.3846V36.1538Z" fill="#9F4B27"/>
<path d="M23.8462 26.9231H17.6923V28.4616H23.8462V26.9231Z" fill="#9F4B27"/>
<path d="M42.3077 28.4615H26.9231V30H42.3077V28.4615Z" fill="#6E3206"/>
<path d="M42.3077 26.9231H26.9231V28.4616H42.3077V26.9231Z" fill="#6E3206"/>
<g clip-path="url(#clip0_137_2)">
<path d="M30 26.9231H20.7692V28.4616H30V26.9231Z" fill="#FF0E0E"/>
<path d="M40.7692 26.9231H31.5385V28.4616H40.7692V26.9231Z" fill="#FF0E0E"/>
<path d="M22.3077 28.4615H20.7692V30H22.3077V28.4615Z" fill="#FF0E0E"/>
<path d="M25.3846 28.4615H22.3077V30H25.3846V28.4615Z" fill="white"/>
<path d="M28.4615 28.4615H25.3846V30H28.4615V28.4615Z" fill="black"/>
<path d="M30 28.4615H28.4615V30H30V28.4615Z" fill="#FF0E0E"/>
<path d="M33.0769 28.4615H31.5385V30H33.0769V28.4615Z" fill="#FF0E0E"/>
<path d="M36.1539 28.4615H33.0769V30H36.1539V28.4615Z" fill="white"/>
<path d="M39.2308 28.4615H36.1538V30H39.2308V28.4615Z" fill="black"/>
<path d="M40.7692 28.4615H39.2308V30H40.7692V28.4615Z" fill="#FF0E0E"/>
<path d="M22.3077 30H16.1538V31.5385H22.3077V30Z" fill="#FF0E0E"/>
<path d="M25.3846 30H22.3077V31.5385H25.3846V30Z" fill="white"/>
<path d="M28.4615 30H25.3846V31.5385H28.4615V30Z" fill="black"/>
<path d="M33.0769 30H28.4615V31.5385H33.0769V30Z" fill="#FF0E0E"/>
<path d="M36.1539 30H33.0769V31.5385H36.1539V30Z" fill="white"/>
<path d="M39.2308 30H36.1538V31.5385H39.2308V30Z" fill="black"/>
<path d="M40.7692 30H39.2308V31.5385H40.7692V30Z" fill="#FF0E0E"/>
<path d="M17.6923 31.5385H16.1538V33.0769H17.6923V31.5385Z" fill="#FF0E0E"/>
<path d="M22.3077 31.5385H20.7692V33.0769H22.3077V31.5385Z" fill="#FF0E0E"/>
<path d="M25.3846 31.5385H22.3077V33.0769H25.3846V31.5385Z" fill="white"/>
<path d="M28.4615 31.5385H25.3846V33.0769H28.4615V31.5385Z" fill="black"/>
<path d="M30 31.5385H28.4615V33.0769H30V31.5385Z" fill="#FF0E0E"/>
<path d="M33.0769 31.5385H31.5385V33.0769H33.0769V31.5385Z" fill="#FF0E0E"/>
<path d="M36.1539 31.5385H33.0769V33.0769H36.1539V31.5385Z" fill="white"/>
<path d="M39.2308 31.5385H36.1538V33.0769H39.2308V31.5385Z" fill="black"/>
<path d="M40.7692 31.5385H39.2308V33.0769H40.7692V31.5385Z" fill="#FF0E0E"/>
<path d="M17.6923 33.0769H16.1538V34.6154H17.6923V33.0769Z" fill="#FF0E0E"/>
<path d="M22.3077 33.0769H20.7692V34.6154H22.3077V33.0769Z" fill="#FF0E0E"/>
<path d="M25.3846 33.0769H22.3077V34.6154H25.3846V33.0769Z" fill="white"/>
<path d="M28.4615 33.0769H25.3846V34.6154H28.4615V33.0769Z" fill="black"/>
<path d="M30 33.0769H28.4615V34.6154H30V33.0769Z" fill="#FF0E0E"/>
<path d="M33.0769 33.0769H31.5385V34.6154H33.0769V33.0769Z" fill="#FF0E0E"/>
<path d="M36.1539 33.0769H33.0769V34.6154H36.1539V33.0769Z" fill="white"/>
<path d="M39.2308 33.0769H36.1538V34.6154H39.2308V33.0769Z" fill="black"/>
<path d="M40.7692 33.0769H39.2308V34.6154H40.7692V33.0769Z" fill="#FF0E0E"/>
<path d="M30 34.6154H20.7692V36.1538H30V34.6154Z" fill="#FF0E0E"/>
<path d="M40.7692 34.6154H31.5385V36.1538H40.7692V34.6154Z" fill="#FF0E0E"/>
</g>
<path d="M34.6154 42.3077H26.9231V43.8462H34.6154V42.3077Z" fill="white"/>
<path d="M34.6154 42.3077H26.9231V43.8462H34.6154V42.3077Z" fill="white"/>
<path d="M36.1538 40.7693H25.3846V42.3077H36.1538V40.7693Z" fill="white"/>
<path d="M36.1538 40.7693H25.3846V42.3077H36.1538V40.7693Z" fill="white"/>
<path d="M37.6923 39.2307H23.8462V40.7692H37.6923V39.2307Z" fill="white"/>
<path d="M37.6923 39.2307H23.8462V40.7692H37.6923V39.2307Z" fill="white"/>
<defs>
<clipPath id="clip0_137_2">
<rect width="24.6154" height="9.23077" fill="white" transform="translate(16.1538 26.9231)"/>
</clipPath>
</defs>
</svg>
