<svg width="1024" height="1024" viewBox="0 0 1024 1024" fill="none" xmlns="http://www.w3.org/2000/svg">
<rect width="1024" height="1024" fill="#FFD1BD"/>
<path d="M864 800H160V832H864V800Z" fill="#552E05"/>
<path d="M864 800H160V832H864V800Z" fill="#552E05"/>
<path d="M832.001 832H160V864H832.001V832Z" fill="#552E05"/>
<path d="M832 864H224V896H832V864Z" fill="#552E05"/>
<path d="M544 768H96V800H544V768Z" fill="#552E05"/>
<path d="M320 608H192V640H320V608Z" fill="#552E05"/>
<path d="M608 736H96V768H608V736Z" fill="#6E3206"/>
<path d="M672 704H96V736H672V704Z" fill="#6E3206"/>
<path d="M736 672H160V704H736V672Z" fill="#6E3206"/>
<path d="M896 640H192V672H896V640Z" fill="#6E3206"/>
<path d="M544 512H192V544H544V512Z" fill="#6E3206"/>
<path d="M608 480H192V512H608V480Z" fill="#6E3206"/>
<path d="M800 448H384V480H800V448Z" fill="#6E3206"/>
<path d="M768 416H448V448H768V416Z" fill="#6E3206"/>
<path d="M736 384H512V416H736V384Z" fill="#6E3206"/>
<path d="M640.001 288H416V320H640.001V288Z" fill="#6E3206"/>
<path d="M576.001 256H416V288H576.001V256Z" fill="#6E3206"/>
<path d="M544 224H448V256H544V224Z" fill="#6E3206"/>
<path d="M544 192H480V224H544V192Z" fill="#6E3206"/>
<path d="M576 160H512V192H576V160Z" fill="#6E3206"/>
<path d="M608 128H544V160H608V128Z" fill="#6E3206"/>
<path d="M672 352H544V384H672V352Z" fill="#6E3206"/>
<path d="M896 608H320V640H896V608Z" fill="#6E3206"/>
<path d="M896 576H384V608H896V576Z" fill="#6E3206"/>
<path d="M832 544H384V576H832V544Z" fill="#6E3206"/>
<path d="M448 544H160V576H448V544Z" fill="#6E3206"/>
<path d="M384.001 512H160V544H384.001V512Z" fill="#6E3206"/>
<path d="M928 768H544V800H928V768Z" fill="#6D3C21"/>
<path d="M736 768H544V800H736V768Z" fill="#9F4B27"/>
<path d="M608 800H416V832H608V800Z" fill="#9F4B27"/>
<path d="M480 832H320V864H480V832Z" fill="#9F4B27"/>
<path d="M352 864H224V896H352V864Z" fill="#9F4B27"/>
<path d="M832 736H608V768H832V736Z" fill="#9F4B27"/>
<path d="M640.001 576H416V608H640.001V576Z" fill="#9F4B27"/>
<path d="M608 128H544V160H608V128Z" fill="#9F4B27"/>
<path d="M512 256H416V288H512V256Z" fill="#9F4B27"/>
<path d="M512 384H384V416H512V384Z" fill="#9F4B27"/>
<path d="M544 608H320V640H544V608Z" fill="#9F4B27"/>
<path d="M448 416H320V448H448V416Z" fill="#9F4B27"/>
<path d="M896 704H672V736H896V704Z" fill="#9F4B27"/>
<path d="M863.999 672H735.999V704H863.999V672Z" fill="#9F4B27"/>
<path d="M927.999 768H735.999V800H927.999V768Z" fill="#552E05"/>
<path d="M895.999 640H735.999V672H895.999V640Z" fill="#552E05"/>
<path d="M928 736H832V768H928V736Z" fill="#552E05"/>
<path d="M928 704H864V736H928V704Z" fill="#552E05"/>
<path d="M896 576H832V608H896V576Z" fill="#552E05"/>
<path d="M896 608H800V640H896V608Z" fill="#552E05"/>
<path d="M416 576H160V608H416V576Z" fill="#552E05"/>
<path d="M320 416H288V448H320V416Z" fill="#552E05"/>
<path d="M608 544H352V576H608V544Z" fill="#552E05"/>
<path d="M800 512H544V544H800V512Z" fill="#552E05"/>
<path d="M416 384H288V416H416V384Z" fill="#552E05"/>
<path d="M544 352H352V384H544V352Z" fill="#552E05"/>
<path d="M672 320H448V352H672V320Z" fill="#552E05"/>
<path d="M512 224H448V256H512V224Z" fill="#552E05"/>
<path d="M832 480H608V512H832V480Z" fill="#552E05"/>
<path d="M832 448H608V480H832V448Z" fill="#552E05"/>
<path d="M416 640H192V672H416V640Z" fill="#9F4B27"/>
<path d="M384 448H256V480H384V448Z" fill="#9F4B27"/>
<path d="M768 480H448V512H768V480Z" fill="#6E3206"/>
<path d="M768 448H448V480H768V448Z" fill="#6E3206"/>
<path d="M608 768H448V800H608V768Z" fill="white"/>
<path d="M640 736H416V768H640V736Z" fill="white"/>
<path d="M672 704H384V736H672V704Z" fill="white"/>
<rect x="320" y="448" width="192" height="192" fill="#FF0E0E"/>
<rect x="544" y="448" width="192" height="192" fill="#FF0E0E"/>
<rect x="224" y="512" width="96" height="32" fill="#FF0E0E"/>
<rect x="512" y="512" width="32" height="32" fill="#FF0E0E"/>
<rect x="224" y="544" width="32" height="64" fill="#FF0E0E"/>
<rect x="352" y="480" width="64" height="128" fill="white"/>
<rect x="416" y="480" width="64" height="128" fill="black"/>
<rect x="576" y="480" width="64" height="128" fill="white"/>
<rect x="640" y="480" width="64" height="128" fill="black"/>
</svg>
