<svg width="720" height="720" viewBox="0 0 720 720" fill="none" xmlns="http://www.w3.org/2000/svg">
<rect width="720" height="720" fill="#FFD1BD"/>
<path d="M558 522H162V540H558V522Z" fill="#552E05"/>
<path d="M558 522H162V540H558V522Z" fill="#552E05"/>
<path d="M540 540H162V558H540V540Z" fill="#552E05"/>
<path d="M540 558H198V576H540V558Z" fill="#552E05"/>
<path d="M378 504H126V522H378V504Z" fill="#552E05"/>
<path d="M252 414H180V432H252V414Z" fill="#552E05"/>
<path d="M414 486H126V504H414V486Z" fill="#6E3206"/>
<path d="M450 468H126V486H450V468Z" fill="#6E3206"/>
<path d="M486 450H162V468H486V450Z" fill="#6E3206"/>
<path d="M576 432H180V450H576V432Z" fill="#6E3206"/>
<path d="M378 360H180V378H378V360Z" fill="#6E3206"/>
<path d="M414 342H180V360H414V342Z" fill="#6E3206"/>
<path d="M522 324H288V342H522V324Z" fill="#6E3206"/>
<path d="M504 306H324V324H504V306Z" fill="#6E3206"/>
<path d="M486 288H360V306H486V288Z" fill="#6E3206"/>
<path d="M432 234H306V252H432V234Z" fill="#6E3206"/>
<path d="M396 216.001H306V234.001H396V216.001Z" fill="#6E3206"/>
<path d="M378 198.001H324V216.001H378V198.001Z" fill="#6E3206"/>
<path d="M378 180.001H342V198.001H378V180.001Z" fill="#6E3206"/>
<path d="M396 162.001H360V180.001H396V162.001Z" fill="#6E3206"/>
<path d="M414 144.001H378V162.001H414V144.001Z" fill="#6E3206"/>
<path d="M450 270H378V288H450V270Z" fill="#6E3206"/>
<path d="M576 414H252V432H576V414Z" fill="#6E3206"/>
<path d="M576 396H288V414H576V396Z" fill="#6E3206"/>
<path d="M540 378H288V396H540V378Z" fill="#6E3206"/>
<path d="M324 378H162V396H324V378Z" fill="#6E3206"/>
<path d="M288 360H162V378H288V360Z" fill="#6E3206"/>
<path d="M594 504H378V522H594V504Z" fill="#6D3C21"/>
<path d="M486 504H378V522H486V504Z" fill="#9F4B27"/>
<path d="M414 522H306V540H414V522Z" fill="#9F4B27"/>
<path d="M342 540H252V557.999H342V540Z" fill="#9F4B27"/>
<path d="M270 558H198V576H270V558Z" fill="#9F4B27"/>
<path d="M540 486H414V504H540V486Z" fill="#9F4B27"/>
<path d="M432 396H306V414H432V396Z" fill="#9F4B27"/>
<path d="M414 144.001H378V162.001H414V144.001Z" fill="#9F4B27"/>
<path d="M360 216.001H306V234.001H360V216.001Z" fill="#9F4B27"/>
<path d="M360 288.001H288V306.001H360V288.001Z" fill="#9F4B27"/>
<path d="M378 414H252V432H378V414Z" fill="#9F4B27"/>
<path d="M324 306H252V324H324V306Z" fill="#9F4B27"/>
<path d="M576 468H450V486H576V468Z" fill="#9F4B27"/>
<path d="M557.999 450H485.999V468H557.999V450Z" fill="#9F4B27"/>
<path d="M593.999 504H485.999V522H593.999V504Z" fill="#552E05"/>
<path d="M575.999 432H485.999V450H575.999V432Z" fill="#552E05"/>
<path d="M594 486H540V504H594V486Z" fill="#552E05"/>
<path d="M594 468H558V486H594V468Z" fill="#552E05"/>
<path d="M576 396H540V414H576V396Z" fill="#552E05"/>
<path d="M576 414H522V432H576V414Z" fill="#552E05"/>
<path d="M306 396H162V414H306V396Z" fill="#552E05"/>
<path d="M252 306H234V324H252V306Z" fill="#552E05"/>
<path d="M414 378H270V396H414V378Z" fill="#552E05"/>
<path d="M522 360H378V378H522V360Z" fill="#552E05"/>
<path d="M306 288H234V306H306V288Z" fill="#552E05"/>
<path d="M378 270H270V288H378V270Z" fill="#552E05"/>
<path d="M450 252.001H324V270.001H450V252.001Z" fill="#552E05"/>
<path d="M360 198.001H324V216.001H360V198.001Z" fill="#552E05"/>
<path d="M540 342H414V360H540V342Z" fill="#552E05"/>
<path d="M540 324H414V342H540V324Z" fill="#552E05"/>
<path d="M306 432H180V450H306V432Z" fill="#9F4B27"/>
<path d="M288 324H216V342H288V324Z" fill="#9F4B27"/>
<path d="M504 342H324V360H504V342Z" fill="#6E3206"/>
<path d="M504 324H324V342H504V324Z" fill="#6E3206"/>
<path d="M414.001 504H324.001V522H414.001V504Z" fill="white"/>
<path d="M432.001 486.001H306.001V504.001H432.001V486.001Z" fill="white"/>
<path d="M450.001 468H288.001V486H450.001V468Z" fill="white"/>
<rect x="251.999" y="324" width="108" height="108" fill="#FF0E0E"/>
<rect x="378.003" y="324" width="108" height="108" fill="#FF0E0E"/>
<rect x="198.002" y="360" width="54" height="17.9999" fill="#FF0E0E"/>
<rect x="360.003" y="360" width="18" height="17.9999" fill="#FF0E0E"/>
<rect x="198.002" y="378" width="18" height="35.9999" fill="#FF0E0E"/>
<rect x="270.003" y="342" width="36" height="71.9998" fill="white"/>
<rect x="305.999" y="342" width="36" height="71.9998" fill="black"/>
<rect x="395.999" y="342" width="36" height="71.9998" fill="white"/>
<rect x="431.999" y="342.001" width="36" height="71.9998" fill="black"/>
</svg>
