<svg width="720" height="720" viewBox="0 0 720 720" fill="none" xmlns="http://www.w3.org/2000/svg">
<rect width="720" height="720" fill="#FFD1BD"/>
<path d="M492 468H228V480H492V468Z" fill="#552E05"/>
<path d="M492 468H228V480H492V468Z" fill="#552E05"/>
<path d="M480 480H228V492H480V480Z" fill="#552E05"/>
<path d="M480 492H252V504H480V492Z" fill="#552E05"/>
<path d="M372 456H204V468H372V456Z" fill="#552E05"/>
<path d="M288 396H240V408H288V396Z" fill="#552E05"/>
<path d="M396 444H204V456H396V444Z" fill="#6E3206"/>
<path d="M420 432H204V444H420V432Z" fill="#6E3206"/>
<path d="M444 420H228V432H444V420Z" fill="#6E3206"/>
<path d="M504 408H240V420H504V408Z" fill="#6E3206"/>
<path d="M372 360H240V372H372V360Z" fill="#6E3206"/>
<path d="M396 348H240V360H396V348Z" fill="#6E3206"/>
<path d="M468 336H312V348H468V336Z" fill="#6E3206"/>
<path d="M456 324H336V336H456V324Z" fill="#6E3206"/>
<path d="M444 312H360V324H444V312Z" fill="#6E3206"/>
<path d="M408 276H324V288H408V276Z" fill="#6E3206"/>
<path d="M384 264H324V276H384V264Z" fill="#6E3206"/>
<path d="M372 252H336V264H372V252Z" fill="#6E3206"/>
<path d="M372 240H348V252H372V240Z" fill="#6E3206"/>
<path d="M384 228H360V240H384V228Z" fill="#6E3206"/>
<path d="M396 216H372V228H396V216Z" fill="#6E3206"/>
<path d="M420 300H372V312H420V300Z" fill="#6E3206"/>
<path d="M504 396H288V408H504V396Z" fill="#6E3206"/>
<path d="M504 384H312V396H504V384Z" fill="#6E3206"/>
<path d="M480 372H312V384H480V372Z" fill="#6E3206"/>
<path d="M336 372H228V384H336V372Z" fill="#6E3206"/>
<path d="M312 360H228V372H312V360Z" fill="#6E3206"/>
<path d="M516 456H372V468H516V456Z" fill="#6D3C21"/>
<path d="M444 456H372V468H444V456Z" fill="#9F4B27"/>
<path d="M396 468H324V480H396V468Z" fill="#9F4B27"/>
<path d="M348 480H288V492H348V480Z" fill="#9F4B27"/>
<path d="M300 492H252V504H300V492Z" fill="#9F4B27"/>
<path d="M480 444H396V456H480V444Z" fill="#9F4B27"/>
<path d="M408 384H324V396H408V384Z" fill="#9F4B27"/>
<path d="M396 216H372V228H396V216Z" fill="#9F4B27"/>
<path d="M360 264H324V276H360V264Z" fill="#9F4B27"/>
<path d="M360 312H312V324H360V312Z" fill="#9F4B27"/>
<path d="M372 396H288V408H372V396Z" fill="#9F4B27"/>
<path d="M336 324H288V336H336V324Z" fill="#9F4B27"/>
<path d="M504 432H420V444H504V432Z" fill="#9F4B27"/>
<path d="M492 420H444V432H492V420Z" fill="#9F4B27"/>
<path d="M516 456H444V468H516V456Z" fill="#552E05"/>
<path d="M504 408H444V420H504V408Z" fill="#552E05"/>
<path d="M516 444H480V456H516V444Z" fill="#552E05"/>
<path d="M516 432H492V444H516V432Z" fill="#552E05"/>
<path d="M504 384H480V396H504V384Z" fill="#552E05"/>
<path d="M504 396H468V408H504V396Z" fill="#552E05"/>
<path d="M324 384H228V396H324V384Z" fill="#552E05"/>
<path d="M288 324H276V336H288V324Z" fill="#552E05"/>
<path d="M396 372H300V384H396V372Z" fill="#552E05"/>
<path d="M468 360H372V372H468V360Z" fill="#552E05"/>
<path d="M324 312H276V324H324V312Z" fill="#552E05"/>
<path d="M372 300H300V312H372V300Z" fill="#552E05"/>
<path d="M420 288H336V300H420V288Z" fill="#552E05"/>
<path d="M360 252H336V264H360V252Z" fill="#552E05"/>
<path d="M480 348H396V360H480V348Z" fill="#552E05"/>
<path d="M480 336H396V348H480V336Z" fill="#552E05"/>
<path d="M324 408H240V420H324V408Z" fill="#9F4B27"/>
<path d="M312 336H264V348H312V336Z" fill="#9F4B27"/>
<path d="M456 348H336V360H456V348Z" fill="#6E3206"/>
<path d="M456 336H336V348H456V336Z" fill="#6E3206"/>
<path d="M396 456H336V468H396V456Z" fill="white"/>
<path d="M408 444H324V456H408V444Z" fill="white"/>
<path d="M420 432H312V444H420V432Z" fill="white"/>
<rect x="288" y="336" width="72" height="72" fill="#FF0E0E"/>
<rect x="372" y="336" width="72" height="72" fill="#FF0E0E"/>
<rect x="252" y="360" width="36" height="12" fill="#FF0E0E"/>
<rect x="360" y="360" width="12" height="12" fill="#FF0E0E"/>
<rect x="252" y="372" width="12" height="24" fill="#FF0E0E"/>
<rect x="300" y="348" width="24" height="48" fill="white"/>
<rect x="324" y="348" width="24" height="48" fill="black"/>
<rect x="384" y="348" width="24" height="48" fill="white"/>
<rect x="408" y="348" width="24" height="48" fill="black"/>
</svg>
