<svg width="1024" height="1024" viewBox="0 0 1024 1024" fill="none" xmlns="http://www.w3.org/2000/svg">
<rect width="1024" height="1024" fill="#FFD1BD"/>
<path d="M776 727.999H248V751.999H776V727.999Z" fill="#552E05"/>
<path d="M776 727.999H248V751.999H776V727.999Z" fill="#552E05"/>
<path d="M752 751.999H248V775.999H752V751.999Z" fill="#552E05"/>
<path d="M751.999 775.999H296V799.999H751.999V775.999Z" fill="#552E05"/>
<path d="M536 703.999H200V727.999H536V703.999Z" fill="#552E05"/>
<path d="M368 584H272V608H368V584Z" fill="#552E05"/>
<path d="M584 679.999H200V703.999H584V679.999Z" fill="#6E3206"/>
<path d="M631.999 656H200V679.999H631.999V656Z" fill="#6E3206"/>
<path d="M680 631.999H248V655.999H680V631.999Z" fill="#6E3206"/>
<path d="M800 608H272V631.999H800V608Z" fill="#6E3206"/>
<path d="M536 512H272V536H536V512Z" fill="#6E3206"/>
<path d="M584 488H272V512H584V488Z" fill="#6E3206"/>
<path d="M728 464H416V488H728V464Z" fill="#6E3206"/>
<path d="M704 440H464V464H704V440Z" fill="#6E3206"/>
<path d="M680 416H512V440H680V416Z" fill="#6E3206"/>
<path d="M608 344H440V368H608V344Z" fill="#6E3206"/>
<path d="M560 320H440V344H560V320Z" fill="#6E3206"/>
<path d="M536 296.001H464V320H536V296.001Z" fill="#6E3206"/>
<path d="M536 272.001H488V296H536V272.001Z" fill="#6E3206"/>
<path d="M560 248.001H512V272.001H560V248.001Z" fill="#6E3206"/>
<path d="M584 224.001H536V248.001H584V224.001Z" fill="#6E3206"/>
<path d="M632 392H536V416H632V392Z" fill="#6E3206"/>
<path d="M799.999 584H368V608H799.999V584Z" fill="#6E3206"/>
<path d="M800 560H416V584H800V560Z" fill="#6E3206"/>
<path d="M752 536H416V560H752V536Z" fill="#6E3206"/>
<path d="M464 536H248V560H464V536Z" fill="#6E3206"/>
<path d="M416 512H248V536H416V512Z" fill="#6E3206"/>
<path d="M824 703.999H536V727.999H824V703.999Z" fill="#6D3C21"/>
<path d="M680 703.999H536V727.999H680V703.999Z" fill="#9F4B27"/>
<path d="M584 727.999H440V751.999H584V727.999Z" fill="#9F4B27"/>
<path d="M488 751.999H368V775.999H488V751.999Z" fill="#9F4B27"/>
<path d="M392 775.999H296V799.999H392V775.999Z" fill="#9F4B27"/>
<path d="M752 679.999H584V703.999H752V679.999Z" fill="#9F4B27"/>
<path d="M608 560H440V584H608V560Z" fill="#9F4B27"/>
<path d="M584 224.001H536V248.001H584V224.001Z" fill="#9F4B27"/>
<path d="M512 320H440V344H512V320Z" fill="#9F4B27"/>
<path d="M512 416H416V440H512V416Z" fill="#9F4B27"/>
<path d="M536 584H368V608H536V584Z" fill="#9F4B27"/>
<path d="M464 440H368V464H464V440Z" fill="#9F4B27"/>
<path d="M800 655.999H632V679.999H800V655.999Z" fill="#9F4B27"/>
<path d="M775.999 632H679.999V656H775.999V632Z" fill="#9F4B27"/>
<path d="M823.999 703.999H679.999V727.999H823.999V703.999Z" fill="#552E05"/>
<path d="M799.999 608H679.999V632H799.999V608Z" fill="#552E05"/>
<path d="M824 679.999H752V703.999H824V679.999Z" fill="#552E05"/>
<path d="M824 656H776V679.999H824V656Z" fill="#552E05"/>
<path d="M800 560H752V584H800V560Z" fill="#552E05"/>
<path d="M800 584H728V608H800V584Z" fill="#552E05"/>
<path d="M440 560H248V584H440V560Z" fill="#552E05"/>
<path d="M368 440H344V464H368V440Z" fill="#552E05"/>
<path d="M584 536H392V560H584V536Z" fill="#552E05"/>
<path d="M728 512H536V536H728V512Z" fill="#552E05"/>
<path d="M440 416H344V440H440V416Z" fill="#552E05"/>
<path d="M536 392H392V416H536V392Z" fill="#552E05"/>
<path d="M632 368H464V392H632V368Z" fill="#552E05"/>
<path d="M512 296.001H464V320H512V296.001Z" fill="#552E05"/>
<path d="M752 488H584V512H752V488Z" fill="#552E05"/>
<path d="M752 464H584V488H752V464Z" fill="#552E05"/>
<path d="M440 608H272V631.999H440V608Z" fill="#9F4B27"/>
<path d="M416 464H320V488H416V464Z" fill="#9F4B27"/>
<path d="M704 488H464V512H704V488Z" fill="#6E3206"/>
<path d="M704 464H464V488H704V464Z" fill="#6E3206"/>
<path d="M584.001 704H464.001V728H584.001V704Z" fill="white"/>
<path d="M608.001 680H440.001V704H608.001V680Z" fill="white"/>
<path d="M632.001 656H416.001V680H632.001V656Z" fill="white"/>
<rect x="367.999" y="464" width="144" height="144" fill="#FF0E0E"/>
<rect x="536.004" y="464" width="144" height="144" fill="#FF0E0E"/>
<rect x="296.004" y="512" width="72" height="23.9999" fill="#FF0E0E"/>
<rect x="512.004" y="512" width="24" height="23.9999" fill="#FF0E0E"/>
<rect x="296.004" y="536" width="24" height="47.9999" fill="#FF0E0E"/>
<rect x="392.004" y="488" width="48" height="95.9997" fill="white"/>
<rect x="439.999" y="487.999" width="48" height="95.9997" fill="black"/>
<rect x="559.999" y="487.999" width="48" height="95.9997" fill="white"/>
<rect x="607.999" y="488" width="48" height="95.9997" fill="black"/>
</svg>
